<svg width="32" height="32" viewBox="0 0 32 32" fill="none" xmlns="http://www.w3.org/2000/svg">
<path d="M14.1744 25.3492L14.1962 25.3343C14.2679 25.2866 14.3386 25.2377 14.4072 25.1846L23.2718 18.9037C24.4336 18.0809 25.0092 16.7878 24.9999 15.4989C25.0092 14.2101 24.4336 12.9169 23.2718 12.0941L14.4072 5.81431C14.3386 5.76229 14.2679 5.71239 14.1962 5.66567L14.1744 5.64975C13.5499 5.23994 12.8069 5 12.0089 5C9.79455 5 8 6.83352 8 9.09596C8 10.2171 8.44058 11.2321 9.15445 11.972L9.2937 12.1143C9.31863 12.1387 9.34253 12.1631 9.36643 12.1876L9.79455 12.6812C10.3796 13.4595 10.7277 14.433 10.7277 15.4904C10.7277 16.6201 10.3307 17.6531 9.67297 18.4568L9.33526 18.8273L9.07756 19.1129C8.41045 19.8444 8.00104 20.8254 8.00104 21.904C8.00104 24.1665 9.79559 26 12.0099 26C12.808 26 13.5509 25.7611 14.1754 25.3503L14.1744 25.3492Z" fill="#3045FF"/>
</svg>
