<svg width="25" height="25" viewBox="0 0 25 25" fill="none" xmlns="http://www.w3.org/2000/svg">
<path d="M10.7216 19.5041L10.7383 19.4928C10.7931 19.4564 10.8472 19.4192 10.8996 19.3788L17.6785 14.5933C18.5668 13.9664 19.0071 12.9812 18.9999 11.9992C19.0071 11.0172 18.5668 10.032 17.6785 9.40506L10.8996 4.62042C10.8472 4.58079 10.7931 4.54277 10.7383 4.50718L10.7216 4.49505C10.244 4.18281 9.67589 4 9.06563 4C7.3723 4 6 5.39697 6 7.12073C6 7.97492 6.33692 8.74823 6.88282 9.31203L6.9893 9.42042C7.00837 9.43903 7.02664 9.45763 7.04492 9.47624L7.3723 9.85238C7.81967 10.4453 8.08587 11.1871 8.08587 11.9927C8.08587 12.8534 7.78232 13.6404 7.27933 14.2528L7.02108 14.5351L6.82402 14.7527C6.31387 15.31 6.00079 16.0574 6.00079 16.8793C6.00079 18.603 7.3731 20 9.06642 20C9.67669 20 10.2448 19.818 10.7224 19.505L10.7216 19.5041Z" fill="#3045FF"/>
</svg>
