<svg width="16" height="16" viewBox="0 0 16 16" fill="none" xmlns="http://www.w3.org/2000/svg">
<path d="M7.5424 12.3488L7.55139 12.3427C7.58091 12.3231 7.61001 12.303 7.63825 12.2812L11.2884 9.70435C11.7668 9.36678 12.0038 8.83624 12 8.30745C12.0038 7.77865 11.7668 7.24812 11.2884 6.91054L7.63825 4.33409C7.61001 4.31275 7.58091 4.29227 7.55139 4.27311L7.5424 4.26657C7.28525 4.09844 6.97933 4 6.65072 4C5.73893 4 5 4.75225 5 5.68047C5 6.14044 5.18142 6.55685 5.47536 6.86045L5.5327 6.91882C5.54297 6.92884 5.55281 6.93886 5.56265 6.94887L5.73893 7.15142C5.97982 7.4707 6.12316 7.87012 6.12316 8.30396C6.12316 8.76742 5.95971 9.19124 5.68887 9.52097L5.54981 9.67299L5.4437 9.79016C5.16901 10.0903 5.00043 10.4927 5.00043 10.9353C5.00043 11.8635 5.73936 12.6158 6.65115 12.6158C6.97975 12.6158 7.28568 12.5178 7.54283 12.3492L7.5424 12.3488Z" fill="#3045FF"/>
</svg>
